<svg xmlns="http://www.w3.org/2000/svg" xmlns:xlink="http://www.w3.org/1999/xlink" width="400" height="400" viewBox="0 0 400 400"><defs><linearGradient id="gradient-21"><stop stop-color="#834f3a" offset="0"/><stop stop-color="#dba174" offset="0.5"/><stop stop-color="#834F3A" offset="1"/></linearGradient></defs>
<rect data-name="background" width="100%" height="100%" fill="none"/><g data-name="container" data="container_num:5" fill="url(#gradient-21)" transform="translate(38.844444444444434,36.201472447902205) scale(1.732591916350077)"><path xmlns="http://www.w3.org/2000/svg" d="M17.914 148.907zM22.657 154.94a90.586 90.586 0 0 0 5.861 6.251c6.914 6.805 15.159 12.525 24.004 16.851 3.259 1.526 6.265 3.107 9.787 4.468.88.338 1.779.7 2.724 1.026.953.302 1.941.604 2.974.903 1.027.321 2.122.549 3.267.786 1.146.23 2.336.493 3.614.624a91.24 91.24 0 0 1-18.434-5.99 93.833 93.833 0 0 1-16.873-9.842c-10.548-7.727-19.57-17.648-26.16-28.989-.272-.339-.685-.985-1.18-1.808l-.796-1.348-.803-1.551c-.534-1.076-1.149-2.168-1.62-3.226a71.281 71.281 0 0 0-1.326-2.748c2.048 5.101 4.412 9.563 7.059 13.806a93.473 93.473 0 0 0 3.869 5.697c-.192-.259-.392-.511-.583-.771a95.012 95.012 0 0 0 4.6 5.841l.016.02zM18.039 149.078l-.125-.17.125.17zM1.335 106.042l-.483-3.875c.256 2.365.553 5.008 1.096 7.654l-.327-1.879a23.961 23.961 0 0 1-.286-1.9zM85.812 185.575c6.652.673 13.628.472 20.461-.609 6.837-1.077 13.524-2.987 19.741-5.449-11.45 4.503-23.602 6.506-35.49 6.171-1.591-.025-3.159 0-4.712-.113z"/><path xmlns="http://www.w3.org/2000/svg" d="M46.426 171.967l-.259-.165c.087.055.172.111.259.165zM46.167 171.802zM43.653 170.135zM56.077 177.284A83.837 83.837 0 0 0 73.2 183.1c-9.688-2.21-18.805-6.109-26.774-11.133 3.06 1.947 6.277 3.749 9.651 5.317zM177.002 107.094c.098-1.58.296-3.238.346-4.027.594-5.071.77-9.401.745-13.745-.11-.783-.425-2.25-.55-3.918-.153-1.672-.378-3.309-.568-4.924-.289-1.601-.538-3.186-.854-4.74 2.275 11.617 2.237 23.279.144 34.282a94.97 94.97 0 0 1 .737-2.928z"/><path xmlns="http://www.w3.org/2000/svg" d="M.887 83.482c.848-6.9 2.653-13.626 4.37-18.107l-.695 3.28c.429-.961 1.122-3.194 2.067-5.557l.682-1.802.753-1.747c.5-1.131.92-2.203 1.363-3.025-.303.771-.595 1.602-.947 2.436-.345.837-.732 1.687-1.101 2.542l1.514-3.409A111.863 111.863 0 0 0 4.954 69.8c-1.133 4.352-2.029 8.926-2.511 13.032-.14 1.024-.189 2.024-.28 2.978-.067.954-.183 1.864-.192 2.724-.042 1.719-.1 3.224-.071 4.428.105 2.409.25 3.61.459 2.939.411-1.333.403-8.188 1.837-16.767.767-4.276 1.868-8.966 3.362-13.561 1.483-4.599 3.427-9.058 5.44-12.992l-.592 1.292-.545 1.331-1.116 2.691-1.024 2.78-.521 1.402c-.153.476-.308.954-.461 1.434-1.32 3.807-2.307 7.816-3.167 11.857l-.559 3.052c-.205 1.014-.292 2.046-.444 3.067-.318 2.041-.434 4.097-.611 6.129-.199 4.074-.239 8.098.13 11.946-.015-.914-.03-1.726-.017-2.512l.115-2.355c.048-.809.039-1.667.115-2.65.07-.983.134-2.091.19-3.402.391-6.608 1.572-13.15 3.408-19.481 1.75-6.358 3.814-11.957 6.889-17.03l.801-1.526c.542-1.024.993-2.034 1.566-3.064.653-1.13 1.278-1.976 1.784-2.751.521-.767.963-1.441 1.469-2.095l3.682-5.082c.075-.009-.022.185-.2.473a28.962 28.962 0 0 1 1.959-2.49c.755-.875 1.488-1.803 2.109-2.569.146-.007.288-.011.623-.251 8.65-9.197 19.295-16.692 31.291-21.417l2.667-1.039 2.7-.899 1.343-.448 1.36-.38 2.71-.753c1.55-.373 3.12-.751 4.721-1.091l2.437-.426c.819-.141 1.642-.3 2.484-.378 1.674-.201 3.134-.625 3.921-.729 4.369-.249 8.73-.199 13.849.216.397.007 1.015.043 1.732.082.717.041 1.537.061 2.332.134.932.21 1.927.418 2.971.621 6.369.988 12.527 2.754 18.386 5.103l-.007-.028 2.244.894 2.29 1.058c1.571.684 3.11 1.559 4.7 2.383.798.407 1.554.904 2.338 1.354.77.474 1.576.894 2.32 1.412 1.508 1.002 3.037 1.961 4.446 3.032a99.912 99.912 0 0 1 6.6 5.198c.046.042.094.081.14.122l.042.038 1.457 1.322 1.394 1.391 1.395 1.392c.462.467.89.967 1.337 1.449-.216-.35-.208-.491-.2-.63-.689-.66-1.504-1.441-2.309-2.21 1.343 1.222 2.515 2.327 3.477 3.229.371.474.776.94 1.16 1.449l1.186 1.566 1.261 1.629 1.255 1.752c2.226 2.838 4.191 5.874 6.057 8.97.864 1.588 1.817 3.131 2.586 4.774l1.213 2.436 1.092 2.497c.314.533.192.022.231-.068 1.225 2.962 2.21 6.042 3.102 9.146a88.212 88.212 0 0 1 3.408 17.211c.225 1.378.321 2.772.52 4.153l-.123 2.924c-.001 1.103.057 2.206.01 3.311l-.128 3.326c-.016.75-.124 1.569-.187 2.459-.084.888-.128 1.846-.256 2.856l-.412 3.192c-.132 1.119-.387 2.269-.583 3.471a90.635 90.635 0 0 1-4.312 15.482c-.242.826-.427 1.486-.592 1.855-.627 1.501-1.296 2.954-1.942 4.385-.723 1.394-1.386 2.788-2.127 4.108a86.09 86.09 0 0 1-7.949 12.379c-.336.439-.649.885-.987 1.297l-.998 1.206c-.66.779-1.25 1.558-1.876 2.234-1.251 1.352-2.301 2.606-3.286 3.549-1.128 1.178-1.027 1.233-.246.665a35.07 35.07 0 0 0 1.608-1.262l2.122-1.914c.776-.677 1.519-1.441 2.235-2.161.708-.725 1.416-1.386 1.962-1.984 1.101-1.191 1.824-1.926 1.67-1.599-1.777 3.345-5.013 7.471-9.743 12.035-2.413 2.227-5.128 4.647-8.339 6.98-1.566 1.221-3.307 2.338-5.082 3.558-1.834 1.123-3.708 2.353-5.757 3.445-4.484 2.442 3.365-1.475 3.577-1.512a22.87 22.87 0 0 1-2.377 1.64c-1.478.786-2.943 1.597-4.474 2.273-.895.411-1.774.855-2.679 1.239l-2.729 1.122 1.444-.568c2.952-1.173 5.711-2.555 8.202-3.922-.936.566-1.96 1.221-3.082 1.812-1.203.622-2.448 1.302-3.697 1.909l-3.625 1.686c12.968-4.711 24.885-12.507 34.319-22.67 4.723-5.066 8.935-10.631 12.369-16.651a93.904 93.904 0 0 0 8.288-18.999c-3.154 9.93-8.071 19.052-13.981 26.765 10.744-14.507 17.15-32.293 17.999-50.636-.001 1.011-.101 2.018-.168 3.025-.083 1.007-.123 2.018-.241 3.022-.257 2.005-.441 4.021-.827 6.009-.624 4-1.636 7.931-2.782 11.815 2.262-7.021 3.613-14.424 4.145-21.869.554-7.451.092-14.947-1.057-22.211 1.974 9.622 2.301 20.524.619 31.298 1.182-6.949 1.482-14.112 1.028-21.214-.102-2.713-.422-5.407-.685-7.901-.377-2.476-.662-4.762-1.027-6.611 1.445 6.826 2.015 12.648 2.293 18.136-.267-11.977-2.748-24.112-7.62-35.511 2.659 6.191 4.842 12.851 6.175 19.698 1.34 6.84 1.897 13.838 1.58 20.57-.015-.788.018-1.575-.028-2.366l-.107-2.391c.287 10.85-1.384 21.604-4.696 31.717-1.662 5.056-3.715 9.969-6.2 14.644a95.521 95.521 0 0 1-8.56 13.316c3.673-4.29 7.551-10.354 10.646-17.015 3.081-6.675 5.368-13.894 6.941-20.199-2.314 11.322-6.907 22.494-13.571 32.471-6.646 9.985-15.351 18.764-25.423 25.502-10.06 6.759-21.474 11.437-33.187 13.748a94.608 94.608 0 0 1-17.657 1.809 94.462 94.462 0 0 1-17.361-1.515l3.005.571c1.002.19 2.018.295 3.026.445 2.016.324 4.055.446 6.087.633 4.073.229 8.168.306 12.25-.005 4.089-.217 8.152-.827 12.196-1.572 2.006-.456 4.036-.829 6.017-1.414.994-.278 2-.521 2.987-.83l2.955-.958c-1.492.462-3.062 1.074-4.739 1.523l-2.101.618a91.772 91.772 0 0 0 12.91-4.496 89.46 89.46 0 0 0 5.651-2.705 96.653 96.653 0 0 1-10.714 4.872 98.407 98.407 0 0 1-21.66 5.382c-1.11.176-2.122.231-3.029.326l-2.428.24c-1.429.113-2.484.164-3.222.245-1.477.147-1.687.284-1.099.397.587.113 1.971.203 3.673.251 1.697-.01 3.71-.101 5.541-.268 18.397-1.887 35.288-9.107 48.824-19.916 13.545-10.811 23.919-25.172 29.701-41.467.363-.946.642-1.922.944-2.89.293-.971.617-1.932.882-2.912.491-1.97 1.072-3.917 1.448-5.917l.619-2.985.487-3.012.241-1.507.172-1.517.342-3.034c.698-8.114.422-16.315-.812-24.363-.66-4.554-1.82-9.961-3.315-14.777l-1.15-3.484c-.4-1.107-.825-2.151-1.203-3.133l-.557-1.415-.571-1.271-.981-2.124c-3.134-6.359-7.072-12.424-11.682-18.065-4.605-5.643-9.896-10.868-15.861-15.418l-2.244-1.703-2.327-1.608-1.166-.806-1.203-.756-2.417-1.508c-3.295-1.904-6.67-3.739-10.228-5.261-3.521-1.598-7.206-2.895-10.957-4.055-1.895-.52-3.781-1.1-5.724-1.499-.968-.209-1.928-.463-2.907-.638l-2.944-.521C100.363.01 93.04-.285 85.724.265 78.412.83 71.069 2.218 64.028 4.614l-2.635.913c-.881.297-1.73.682-2.597 1.019-.858.359-1.735.673-2.577 1.069l-2.532 1.173c-.852.376-1.675.808-2.496 1.245l-2.469 1.297-2.402 1.412c-.8.472-1.606.933-2.372 1.458l-2.324 1.528c-.782.497-1.506 1.078-2.261 1.612-.741.554-1.51 1.07-2.226 1.654l-2.157 1.737c-.729.565-1.417 1.178-2.103 1.792l-2.063 1.83-1.971 1.919c-.656.639-1.319 1.271-1.93 1.951-5.031 5.298-9.451 11.078-13.066 17.194A99.518 99.518 0 0 0 5.18 64.379C.805 77.299-.45 90.402.134 102.237c-.126-4.872-.147-11.859.753-18.755zm141.132 90.446a96.807 96.807 0 0 0 8.765-6.389c-2.84 2.339-5.758 4.499-8.765 6.389zm40.217-54.282c-.299.901-.552 1.791-.882 2.641l-.957 2.523-.466 1.248-.513 1.231a108.54 108.54 0 0 0-.997 2.501 97.307 97.307 0 0 1-6.587 13.35c-2.521 4.275-5.443 8.281-8.565 12.04-1.542 1.899-3.222 3.66-4.874 5.421l-2.581 2.523c-.847.848-1.774 1.604-2.652 2.404-.736.64-1.478 1.266-2.225 1.882a90.696 90.696 0 0 0 7.896-7.312 89.808 89.808 0 0 1-11.689 10.188c-1.036.722-2.037 1.496-3.113 2.176l-3.247 2.069-3.43 1.949c-1.167.648-2.399 1.224-3.634 1.855a74.206 74.206 0 0 1 2.685-1.508c1.021-.567 2.092-1.237 3.138-1.85 1.054-.601 2.012-1.261 2.808-1.813.796-.552 1.42-1.01 1.745-1.306-.464.315-.936.617-1.406.924a92.477 92.477 0 0 0 1.507-1.015c-.021.023-.065.059-.101.091 10.932-7.466 20.245-17.277 27.223-28.462 7.009-11.175 11.57-23.781 13.46-36.601-.41 5.142-1.352 9.248-2.543 12.851zm-6.654-65.352zm-8.448-12.698a92.37 92.37 0 0 1 7.773 14.352c.25.549.486 1.106.719 1.664 4.963 12.154 7.221 25.192 6.89 38.036.084-4.25-.198-8.498-.669-12.71-.533-4.854-1.518-9.65-2.824-14.341-2.562-9.407-6.723-18.323-12.005-26.451.485.67.996 1.396 1.525 2.166a32.826 32.826 0 0 1 1.59 2.463l-.638-1.109-.689-1.079-1.378-2.156c-.938-1.424-1.955-2.796-2.934-4.192-1.062-1.334-2.069-2.712-3.174-4.011-.836-.953-1.637-1.938-2.485-2.879 2.992 3.155 5.801 6.54 8.299 10.247zM96.886 1.152c1.467.078 2.937.221 4.407.331 1.204.101 2.402.279 3.588.413.356.015.732.039 1.204.092.471.065 1.034.186 1.769.354 5.469.912 10.459 2.283 14.001 3.699 6.798 2.573 13.123 5.774 18.86 9.471 5.739 3.69 10.889 7.887 15.246 12.471 2.008 2.179 1.422 1.704.315.646l1.662 1.764c-.736-.734-1.459-1.478-2.206-2.196l-2.301-2.09c.56.49 1.918 1.663 2.845 2.522-7.389-7.539-16.026-13.799-25.375-18.404-9.356-4.603-19.431-7.446-29.502-8.581 1.618.18 2.412.22 3.168.24-1.085-.127-2.173-.301-3.274-.401-1.479-.097-2.955-.229-4.423-.301l-4.36-.103c1.444-.001 2.907.039 4.376.073z"/><path xmlns="http://www.w3.org/2000/svg" d="M115.942 184.69l.426-.125c-.446.12-.885.252-1.334.366.304-.076.609-.15.908-.241zM160.424 146.151c4.235-5.587 7.977-12.263 10.366-18.014l-.029.006c-6.061 14.322-15.892 26.66-28.16 35.744a159.12 159.12 0 0 0 6.418-4.703c2.698-2.82 7.213-7.406 11.405-13.033zM35.35 162.846c7.172 6.412 15.821 11.992 25.448 15.751 3.754 1.413 7.585 2.651 11.503 3.523 1.944.502 3.929.812 5.899 1.181.987.175 1.987.272 2.979.412.994.129 1.986.275 2.987.333-4.519-.501-9.005-1.251-13.372-2.44-4.364-1.185-8.642-2.65-12.769-4.449a97.4 97.4 0 0 1-11.894-6.314c-3.786-2.408-7.376-5.097-10.781-7.997zM123.877 174.277l-2.219.871-2.266.756c-1.5.54-3.047.944-4.59 1.373 1.551-.39 3.111-.754 4.624-1.254l2.283-.698 2.23-.815c-.086-.044-.594.055-.062-.233zM97.683 179.965c-1.16.099-2.326.09-3.494.102-1.168.014-2.338.039-3.509-.038l1.576.148c.482.031.916.068 1.295.113 1.381-.118 2.752-.151 4.132-.325zM51.441 169.209c1.341.787 2.765 1.48 4.178 2.244.354.194.996.415 1.801.709-1.721-.739-3.37-1.655-5.046-2.505-.83-.441-1.629-.935-2.443-1.395-.812-.464-1.621-.927-2.389-1.445l.937.626.977.584 1.985 1.182z"/></g><g data-name="icon" fill="#5a1c00" data="id:3292689" transform="translate(150.20562260371693,121.94279462138924) scale(0.0016598125169813918)">
    <defs/><g><path class="fil0" d="M6720.34 51609.63c-131.16,176.9 -380.91,213.97 -557.81,82.81 -176.9,-131.16 -213.97,-380.91 -82.81,-557.81 1686.16,-2270.91 2634.27,-4037.44 2844.84,-5913.43 210.53,-1875.59 -308.93,-3903.43 -1557.15,-6698.15 -4.82,-9.42 -9.31,-19.09 -13.44,-29.03l-6.31 -15.07c-287.43,-636.39 -714.88,-1344.59 -1173.25,-2104.01 -815.08,-1350.4 -1725.5,-2858.75 -2207.92,-4558.4 -85.71,-301.96 -119.68,-928.21 -112.9,-1759.69l-0.52 -3.66c-214.92,-1632.61 -963.74,-3066.07 -1581.67,-4248.96 -357.36,-684.07 -673.09,-1288.45 -838.2,-1831.47l-0.44 0.13c-333.22,-1073.2 -542.59,-1759.35 -681.4,-2462.77 -138.5,-701.86 -206.03,-1416.61 -254.59,-2540.25 -62.12,-439.39 -155.6,-865.78 -249.06,-1292.14 -167.22,-762.86 -334.47,-1525.75 -346.97,-2486.91 -4.78,-366.4 108.99,-631.91 273.64,-788.88 108.8,-103.73 237.81,-163.26 375.99,-179.12 133.7,-15.32 269.37,12.05 396.54,81.55 206.45,112.82 391.47,346.91 476.72,691.28l8.52 34.44c114.8,464.2 237.27,959.34 548.46,1180.14 80.5,57.12 174.83,119.48 269.15,181.83 338.27,223.62 676.57,447.26 978.89,837.03 260.19,335.45 384.99,1051.48 421.9,1834.39 24.13,511.96 13.95,1063.68 -18.17,1551.65 2.6,2.48 5.17,4.99 7.72,7.55 350.13,350.24 638.91,747.06 859.84,1188.03 285.53,-2239.16 626.42,-4131.23 935.88,-4733.18l1653.06 -3215.4c121.7,-318.47 258.53,-668.84 439,-996.14 198.67,-360.32 446.74,-683.77 777.2,-895.97 190.12,-122.1 364.26,-173.12 513.53,-170.34 156.49,2.91 285.78,57.74 385.88,153.48l-0.79 0.83 0.79 0.73c94.14,90.07 152.09,206.57 173.09,340.76 24.35,155.59 -3.83,342.05 -87.6,529.32 -243.55,749.69 -136.06,1137.97 11.98,1647.22 36.05,95.17 64.61,192.63 85.88,290.4 98.45,452.21 -33.79,1010.44 -265.8,1585.68 -213.1,528.36 -511.11,1077.72 -780.65,1560.9 -366.62,657.22 -404.77,1252.53 -446.49,1903.81 -4.8,74.96 -9.65,150.59 -14.98,227.12 315.57,-271.31 680.4,-563.03 1133,-910.39 343.61,-320.22 635.9,-635.75 928.18,-951.26 540.23,-583.19 1080.49,-1166.41 1858.38,-1727.59 296.78,-214.12 576.43,-274.58 796.3,-231.54 148.93,29.13 272.41,101.49 364.69,207.41 88.1,101.14 142.06,228.81 156.63,374.1 23.43,233.63 -66.01,521.79 -303.21,791.75l0 1.56 -23.69 26.95c-322.5,366.8 -666.49,758.07 -678.4,1147.1 -3.49,114.01 -3.31,222.5 -3.13,330.96 0.68,410.11 1.38,820.28 -152.04,1288.82 -95.86,292.69 -347.62,636.9 -677.36,981.66 -351.79,367.83 -801.1,749.88 -1237.77,1068.89 -263.35,192.39 -458.15,306.53 -610.95,396.07 -267.15,156.54 -353.69,207.26 -626.13,823.06 -312.11,705.54 -303.19,1254.72 -293.73,1837.23 3.04,187.68 6.15,378.5 0.38,578.48 -6.04,220.05 -189.33,393.54 -409.38,387.5 -220.05,-6.04 -393.54,-189.33 -387.5,-409.38 5.42,-187.6 2.49,-367.33 -0.38,-544.1 -10.97,-674.88 -21.3,-1311.14 359.35,-2171.61 375.97,-849.81 517.45,-932.73 954.27,-1188.68 133.06,-77.97 302.7,-177.37 542.19,-352.33 403.1,-294.48 814.24,-643.37 1131.53,-975.13 253.77,-265.33 440.07,-507.46 496.1,-678.54 80.43,-245.63 104.66,-486.91 111.77,-726.84 -267.38,207.67 -580.95,430.66 -906.62,614.27 -566.33,319.29 -1168.73,515.65 -1658.06,328.89 -447.1,364.92 -786.92,672.48 -1102.48,998.49 -7.76,8.79 -15.89,17.21 -24.36,25.25 -477.82,496.99 -913.92,1048.78 -1589.84,1912.26l-1.56 3.13c-513.95,648.41 -804.26,1337.8 -980.68,2064.02 -180.87,744.51 -245.56,1546.07 -306.1,2383.09 -1,14.18 -2.74,28.14 -5.16,41.84 -50.08,807.53 -82.04,1545.98 -90.91,2161.55l0.44 3.2c5.18,39.69 4.3,78.77 -1.87,116.34 -7.12,734.5 20.94,1279.12 93.43,1534.51 231.02,813.95 574.54,1593.74 960.66,2336.42 -22.74,-699.65 118.45,-1442.91 363.08,-2193.72 310.8,-953.92 787.91,-1920.96 1303.17,-2822.39 183.82,-321.58 197.74,-493.13 210.97,-656.22 19.95,-245.89 38.92,-479.66 284.49,-887.06 247.97,-411.39 465.09,-569.63 749.01,-776.57 54.71,-39.87 113.3,-82.59 218.99,-165.7 200.94,-158.04 404.95,-332.16 609.43,-518.31 -262.35,-756.34 -112.85,-1488.12 213.91,-1964.72 126.81,-184.97 283.37,-336.17 457.47,-441.87 190.55,-115.69 400.39,-175.88 616.18,-167.27 266.55,10.62 529.83,121.96 759.11,358.89 235.34,-294.94 455.16,-585.96 653.43,-863.65l-0.3 -0.21c311.53,-440.7 629.87,-862.98 956.74,-1259.55 327.1,-396.84 657.38,-760.63 991.18,-1082.12 289.06,-278.4 504.52,-424.97 662.27,-474.74 315.64,-99.57 515.35,10.57 624.02,276.27 51.65,126.25 54.46,281.02 22.1,452.42 -68.13,360.66 -311.86,926.13 -506.29,1333.14 -82.3,172.24 -107.96,322.53 -98.32,466.09 10.7,159.37 64.2,325.53 134.53,506.54 557.4,1434.54 -1040.95,3070.9 -2328.37,4348.89 1553.55,3718.99 2344.14,4882.97 5201.07,9088.94l67.9 99.96c1325.73,1951.8 1817.12,3574.47 1703.37,5107.37 -113.58,1530.64 -826.02,2937.29 -1910.58,4472.83 -245.39,347.42 -389.31,1227.86 -513.07,1985.03 -55.32,338.48 -106.95,654.25 -164.5,904.13 -94.89,411.96 -203.14,832.57 -324.24,1254.97 -117.01,408.17 -248.88,828.65 -395.49,1256.5 -70.76,208.83 -297.43,320.76 -506.26,250 -208.83,-70.76 -320.76,-297.43 -250,-506.26 139.34,-406.63 267.15,-814.89 382.99,-1219 121.11,-422.42 226.1,-828.92 314.88,-1214.33 53.39,-231.82 102.5,-532.18 155.12,-854.13 137.63,-841.99 297.66,-1821.06 647.45,-2316.29 1006.35,-1424.8 1666.07,-2711.88 1766.82,-4069.71 100.6,-1355.59 -351.45,-2816.3 -1565.87,-4604.23l-67.9 -99.96c-2818.12,-4148.84 -3653.17,-5378.39 -5151.46,-8925.49 -15,15.41 -29.85,30.73 -44.56,45.96 -21.8,22.57 -51.89,51.13 -93.21,90.34 -290.62,275.77 -1236.73,1173.63 -1275.53,1770.06 -0.97,21.38 -3.69,42.96 -8.23,64.56l-0.2 0.97c-0.42,2.02 -0.84,4.04 -1.31,6.06 -7.51,32.48 -14.82,64.75 -21.96,96.85l1217.67 2514.95c59.86,124.04 7.83,273.15 -116.21,333.01 -124.04,59.86 -273.15,7.83 -333.01,-116.21l-911.38 -1882.35c-49.51,484.66 -32.32,950.41 79.12,1449.25 185.92,832.29 634.7,1780.8 1469.86,3082.81 119.08,185.53 65.22,432.49 -120.31,551.57 -185.53,119.08 -432.49,65.22 -551.57,-120.31 -886.79,-1382.51 -1368.15,-2411.29 -1576.1,-3342.19 -210.56,-942.56 -139.66,-1761.17 79.36,-2717.55 81.81,-904.99 1179.76,-1946.93 1519.8,-2269.6 35.4,-33.59 61.14,-58.02 68.21,-65.34 170.39,-176.44 362.67,-367.11 564.99,-567.75 1142.25,-1132.7 2632.27,-2610.29 2248.95,-3596.81 -15.85,-40.79 -31.08,-81.26 -45.57,-121.54 -89.3,98.69 -182.27,201.11 -269.84,297.59 -188.46,207.62 -352.02,387.81 -390.64,432.72 -243.55,283.2 -506.63,543.36 -816.94,720.3 -321.58,183.35 -684.69,274.12 -1112.61,206.79 -154.69,179.45 -313.15,357.59 -474.1,532.44 -567.75,616.79 -1168.5,1195.45 -1748.24,1651.41 -61.05,48.01 -155.51,116.86 -243.99,181.34 -206.88,150.79 -365.09,266.1 -533.39,545.31 -148.38,246.17 -159.89,387.95 -171.99,537.06 -20.32,250.55 -41.7,514.07 -314.09,990.6 -492.76,862.07 -946.92,1780.37 -1237.55,2672.39 -281.33,863.48 -409.94,1700.6 -268.46,2430.93 171.16,883.52 560.79,1685.8 961,2509.86 198.53,408.79 399.57,822.75 580.56,1256.47 1.49,3.6 2.91,7.21 4.29,10.82 1308.57,2929.9 1850.49,5079.5 1622.56,7110.12 -228.9,2039.31 -1227.04,3915.85 -2997.98,6300.93zm42884.66 -20669.62l-911.38 1882.35c-59.86,124.04 -208.97,176.07 -333.01,116.21 -124.04,-59.86 -176.07,-208.97 -116.21,-333.01l1217.67 -2514.95c-7.14,-32.1 -14.45,-64.37 -21.96,-96.85l-1.31 -6.06 -0.2 -0.97c-4.55,-21.6 -7.27,-43.18 -8.23,-64.56 -38.8,-596.43 -984.91,-1494.29 -1275.53,-1770.06 -41.32,-39.21 -71.41,-67.77 -93.21,-90.34 -14.71,-15.23 -29.56,-30.55 -44.56,-45.96 -1498.29,3547.1 -2333.34,4776.65 -5151.46,8925.49l-67.9 99.96c-1214.42,1787.93 -1666.47,3248.64 -1565.87,4604.23 100.75,1357.83 760.47,2644.91 1766.82,4069.71 349.79,495.23 509.82,1474.3 647.45,2316.29 52.62,321.95 101.73,622.31 155.12,854.13 88.78,385.41 193.77,791.91 314.88,1214.33 115.84,404.11 243.65,812.37 382.99,1219 70.76,208.83 -41.17,435.5 -250,506.26 -208.83,70.76 -435.5,-41.17 -506.26,-250 -146.61,-427.85 -278.48,-848.33 -395.49,-1256.5 -121.1,-422.4 -229.35,-843.01 -324.24,-1254.97 -57.55,-249.88 -109.18,-565.65 -164.5,-904.13 -123.76,-757.17 -267.68,-1637.61 -513.07,-1985.03 -1084.56,-1535.54 -1797,-2942.19 -1910.58,-4472.83 -113.75,-1532.9 377.64,-3155.57 1703.37,-5107.37l67.9 -99.96c2856.93,-4205.97 3647.52,-5369.95 5201.07,-9088.94 -1287.42,-1277.99 -2885.77,-2914.35 -2328.37,-4348.89 70.33,-181.01 123.83,-347.17 134.53,-506.54 9.64,-143.56 -16.02,-293.85 -98.32,-466.09 -194.43,-407.01 -438.16,-972.48 -506.29,-1333.14 -32.36,-171.4 -29.55,-326.17 22.1,-452.42 108.67,-265.7 308.38,-375.84 624.02,-276.27 157.75,49.77 373.21,196.34 662.27,474.74 333.8,321.49 664.08,685.28 991.18,1082.12 326.87,396.57 645.21,818.85 956.74,1259.55l-0.3 0.21c198.27,277.69 418.09,568.71 653.43,863.65 229.28,-236.93 492.56,-348.27 759.11,-358.89 215.79,-8.61 425.63,51.58 616.18,167.27 174.1,105.7 330.66,256.9 457.47,441.87 326.76,476.6 476.26,1208.38 213.91,1964.72 204.48,186.14 408.49,360.27 609.43,518.31 105.69,83.11 164.28,125.83 218.99,165.7 283.92,206.94 501.04,365.18 749.01,776.57 245.57,407.4 264.54,641.17 284.49,887.06 13.23,163.09 27.15,334.64 210.97,656.22 515.26,901.43 992.37,1868.47 1303.17,2822.39 244.63,750.81 385.82,1494.07 363.08,2193.72 386.12,-742.68 729.64,-1522.47 960.66,-2336.42 72.49,-255.39 100.55,-800.01 93.43,-1534.51 -6.17,-37.57 -7.05,-76.65 -1.87,-116.34l0.44 -3.2c-8.87,-615.57 -40.83,-1354.02 -90.91,-2161.55 -2.42,-13.7 -4.16,-27.66 -5.16,-41.84 -60.54,-837.02 -125.23,-1638.58 -306.1,-2383.09 -176.42,-726.22 -466.73,-1415.61 -980.68,-2064.02l-1.56 -3.13c-675.92,-863.48 -1112.02,-1415.27 -1589.84,-1912.26 -8.47,-8.04 -16.6,-16.47 -24.36,-25.25 -315.56,-326.01 -655.36,-633.56 -1102.48,-998.49 -489.33,186.76 -1091.73,-9.6 -1658.06,-328.89 -325.67,-183.61 -639.24,-406.6 -906.62,-614.27 7.11,239.93 31.34,481.21 111.77,726.84 56.03,171.08 242.33,413.21 496.1,678.54 317.29,331.76 728.43,680.65 1131.53,975.13 239.49,174.96 409.13,274.36 542.19,352.33 436.82,255.95 578.3,338.87 954.27,1188.68 380.65,860.47 370.32,1496.73 359.35,2171.61 -2.87,176.77 -5.8,356.5 -0.38,544.1 6.04,220.05 -167.45,403.34 -387.5,409.38 -220.05,6.04 -403.34,-167.45 -409.38,-387.5 -5.77,-199.98 -2.66,-390.8 0.38,-578.48 9.46,-582.51 18.38,-1131.69 -293.73,-1837.23 -272.44,-615.8 -358.98,-666.52 -626.13,-823.06 -152.8,-89.54 -347.6,-203.68 -610.95,-396.07 -436.67,-319.01 -885.98,-701.06 -1237.77,-1068.89 -329.74,-344.76 -581.5,-688.97 -677.36,-981.66 -153.42,-468.54 -152.72,-878.71 -152.04,-1288.82 0.18,-108.46 0.36,-216.95 -3.13,-330.96 -11.91,-389.03 -355.9,-780.3 -678.4,-1147.1l-23.69 -26.95 0 -1.56c-237.2,-269.96 -326.64,-558.12 -303.21,-791.75 14.57,-145.29 68.53,-272.96 156.63,-374.1 92.28,-105.92 215.76,-178.28 364.69,-207.41 219.87,-43.04 499.52,17.42 796.3,231.54 777.89,561.18 1318.15,1144.4 1858.38,1727.59 292.28,315.51 584.57,631.04 928.18,951.26 452.6,347.36 817.43,639.08 1133,910.39 -5.33,-76.53 -10.18,-152.16 -14.98,-227.12 -41.72,-651.28 -79.87,-1246.59 -446.49,-1903.81 -269.54,-483.18 -567.55,-1032.54 -780.65,-1560.9 -232.01,-575.24 -364.25,-1133.47 -265.8,-1585.68 21.27,-97.77 49.83,-195.23 85.88,-290.4 148.04,-509.25 255.53,-897.53 11.98,-1647.22 -83.77,-187.27 -111.95,-373.73 -87.6,-529.32 21,-134.19 78.95,-250.69 173.09,-340.76l0.79 -0.73 -0.79 -0.83c100.1,-95.74 229.39,-150.57 385.88,-153.48 149.27,-2.78 323.41,48.24 513.53,170.34 330.46,212.2 578.53,535.65 777.2,895.97 180.47,327.3 317.3,677.67 439,996.14l1653.06 3215.4c309.46,601.95 650.35,2494.02 935.88,4733.18 220.93,-440.97 509.71,-837.79 859.84,-1188.03 2.55,-2.56 5.12,-5.07 7.72,-7.55 -32.12,-487.97 -42.3,-1039.69 -18.17,-1551.65 36.91,-782.91 161.71,-1498.94 421.9,-1834.39 302.32,-389.77 640.62,-613.41 978.89,-837.03 94.32,-62.35 188.65,-124.71 269.15,-181.83 311.19,-220.8 433.66,-715.94 548.46,-1180.14l8.52 -34.44c85.25,-344.37 270.27,-578.46 476.72,-691.28 127.17,-69.5 262.84,-96.87 396.54,-81.55 138.18,15.86 267.19,75.39 375.99,179.12 164.65,156.97 278.42,422.48 273.64,788.88 -12.5,961.16 -179.75,1724.05 -346.97,2486.91 -93.46,426.36 -186.94,852.75 -249.06,1292.14 -48.56,1123.64 -116.09,1838.39 -254.59,2540.25 -138.81,703.42 -348.18,1389.57 -681.4,2462.77l-0.44 -0.13c-165.11,543.02 -480.84,1147.4 -838.2,1831.47 -617.93,1182.89 -1366.75,2616.35 -1581.67,4248.96l-0.52 3.66c6.78,831.48 -27.19,1457.73 -112.9,1759.69 -482.42,1699.65 -1392.84,3208 -2207.92,4558.4 -458.37,759.42 -885.82,1467.62 -1173.25,2104.01l-6.31 15.07c-4.13,9.94 -8.62,19.61 -13.44,29.03 -1248.22,2794.72 -1767.68,4822.56 -1557.15,6698.15 210.57,1875.99 1158.68,3642.52 2844.84,5913.43 131.16,176.9 94.09,426.65 -82.81,557.81 -176.9,131.16 -426.65,94.09 -557.81,-82.81 -1770.94,-2385.08 -2769.08,-4261.62 -2997.98,-6300.93 -227.93,-2030.62 313.99,-4180.22 1622.56,-7110.12 1.38,-3.61 2.8,-7.22 4.29,-10.82 180.99,-433.72 382.03,-847.68 580.56,-1256.47 400.21,-824.06 789.84,-1626.34 961,-2509.86 141.48,-730.33 12.87,-1567.45 -268.46,-2430.93 -290.63,-892.02 -744.79,-1810.32 -1237.55,-2672.39 -272.39,-476.53 -293.77,-740.05 -314.09,-990.6 -12.1,-149.11 -23.61,-290.89 -171.99,-537.06 -168.3,-279.21 -326.51,-394.52 -533.39,-545.31 -88.48,-64.48 -182.94,-133.33 -243.99,-181.34 -579.74,-455.96 -1180.49,-1034.62 -1748.24,-1651.41 -160.95,-174.85 -319.41,-352.99 -474.1,-532.44 -427.92,67.33 -791.03,-23.44 -1112.61,-206.79 -310.31,-176.94 -573.39,-437.1 -816.94,-720.3 -38.62,-44.91 -202.18,-225.1 -390.64,-432.72 -87.57,-96.48 -180.54,-198.9 -269.84,-297.59 -14.48,40.28 -29.72,80.75 -45.57,121.54 -383.32,986.52 1106.7,2464.11 2248.95,3596.81 202.32,200.64 394.6,391.31 564.99,567.75 7.07,7.32 32.81,31.75 68.21,65.34 340.04,322.67 1437.99,1364.61 1519.8,2269.6 219.02,956.38 289.92,1774.99 79.36,2717.55 -207.95,930.9 -689.31,1959.68 -1576.1,3342.19 -119.08,185.53 -366.04,239.39 -551.57,120.31 -185.53,-119.08 -239.39,-366.04 -120.31,-551.57 835.16,-1302.01 1283.94,-2250.52 1469.86,-3082.81 111.44,-498.84 128.62,-964.59 79.12,-1449.25zm8844.23 -14056.75c-188.14,642.95 -204.29,1123.88 -103.59,1486.15 68.62,246.85 195.18,440.35 359.63,594.45l2.14 -49.51 1.02 -23.99 2.11 -15.07c68.53,-490.6 164.52,-928.47 260.5,-1366.32 145.89,-665.54 291.77,-1331.11 324.96,-2100.82 -139.41,546.16 -318.57,1100.49 -814.1,1452.08 -11.01,7.81 -21.89,15.48 -32.67,23.03zm225.11 2682.34c-376.04,-236.73 -672.35,-571.22 -809.16,-1063.37 -91.04,-327.5 -108.04,-722.55 -25.05,-1202.72 -159.36,119.3 -309.5,252.05 -437.51,417.08 -148.17,191.03 -226.14,744.96 -256.28,1384.39 -42.92,910.48 28.14,1944.55 135.45,2440.92 46.6,215.73 -90.52,428.41 -306.25,475.01 -215.73,46.6 -428.41,-90.52 -475.01,-306.25l-3.53 -16.68c-217.21,308.85 -387.6,649.85 -506.7,1021.44 -185.09,577.44 -248,1232.64 -172.67,1960.12 0.49,4.74 0.86,9.47 1.17,14.19 90.29,948.45 166.27,1893.32 222.34,2773.79l0.77 10.29c304.6,-744.49 659.36,-1423.71 980.44,-2038.34 339.3,-649.51 639.05,-1223.29 782.4,-1695.4l0 -1.56c323.25,-1041.11 526.3,-1706.39 659.52,-2381.51 103.9,-526.52 165.81,-1061.81 210.07,-1791.4zm-9988.58 -795.96c302.62,252.58 722.98,580.99 1155.99,825.11 299.75,169 604.47,299.15 870.33,330.78 -72.61,-56.39 -147.68,-114.32 -225.52,-174.01l-15.9 -12.18 -13.79 -12.82c-350.08,-325.09 -666.22,-666.37 -982.34,-1007.62 -455.42,-491.64 -910.85,-983.29 -1511.07,-1450.09 362.33,420.91 703.35,880 721.63,1477.33l0.67 23.5zm-3641.56 23680.09c-13.48,136.99 -135.47,237.12 -272.46,223.64 -136.99,-13.48 -237.12,-135.47 -223.64,-272.46 64.46,-639.25 229.31,-1249.4 519.22,-1848.06 288.12,-594.97 698.92,-1177.09 1256.68,-1763.73 94.92,-99.77 252.77,-103.7 352.54,-8.78 99.77,94.92 103.7,252.77 8.78,352.54 -521.16,548.14 -903.16,1088.26 -1168.78,1636.77 -263.83,544.8 -413.79,1099.47 -472.34,1680.08zm4851.91 -17180.62c31.23,-342.75 -55.9,-649.8 -204.44,-866.46 -63.93,-93.25 -136.01,-165.33 -210.59,-210.61 -58.13,-35.29 -117.1,-53.85 -172.42,-51.65 -87.13,3.46 -182.06,59.81 -276.29,182.88 158.59,184.63 321.58,368.23 487.52,548.5 124.06,134.78 249.68,267.54 376.22,397.34zm3130.3 -4368.95c471.55,499.19 910.04,1054.22 1571.95,1899.77l0.55 -0.44c92.53,116.73 178.74,234.49 259.15,353.26 -298.23,-2673.37 -679.27,-5079.41 -1003.25,-5709.6l-1592.12 -3096.86c-25.02,-7.09 -49.57,-13.24 -73.65,-18.48 -202.83,-44.15 -357.26,-17.17 -469.97,54 -119.32,75.34 -208.53,205.45 -268.54,358.23 -23.52,59.89 -42.54,124.2 -57.1,191.14 -59.68,274.15 47.08,678.51 225.16,1120.04 196.99,488.4 480.2,1010.1 736.91,1470.28 455.16,815.95 498.78,1496.63 546.49,2241.31 22.91,357.74 46.89,731.88 124.42,1137.35zm-7018.29 1732.18c140.55,156.83 330.05,365.59 499.12,551.86 185.24,204.08 345.94,381.1 400.4,444.44 211.33,245.74 434.69,468.69 684.14,610.92 140.8,80.28 292.77,135.59 459.71,155.12 -304.06,-372.95 -587.11,-743.88 -837.89,-1095.2l-1.56 -1.56c-307.17,-434.52 -613.85,-842.16 -919.24,-1212.67 -206.4,-250.41 -414.72,-487.25 -625.14,-707.94 55.42,126.77 112.83,251.09 166.24,362.89 148.83,311.47 194.73,590.69 176.44,862.97 -0.65,9.76 -1.4,19.47 -2.22,29.17zm5894.51 -9122.63c-41.29,-89.12 -84.67,-176.22 -130.5,-259.34 -62.43,-113.23 -129.63,-219.98 -202.63,-315.05 55.35,229.22 82.3,429.74 88.47,613.64 77.74,-20.13 159.29,-33.46 244.66,-39.25zm-21036.97 8699.48l0 -0.16 -25.34 -145.86c-32.82,-188.93 -57.27,-383.97 -73.41,-577.44 -5.89,-70.53 -10.75,-140.98 -14.58,-211.01l-716.49 7.71c-3.76,67.49 -8.48,135.36 -14.15,203.3 -16.14,193.47 -40.59,388.51 -73.41,577.44l-448.5 2581.37c-26.4,151.99 29.21,251.25 124.02,317.36 408.42,-312.23 701.54,-632.13 898,-1009.87 237.21,-456.09 340.87,-1007.74 343.86,-1742.84zm272.85 1570.23c-49.03,140.87 -106.62,274.77 -173.35,403.07 -186.61,358.8 -441.31,668.95 -775.96,961.84 68.32,11.41 137.34,21.01 205.1,29.37 264.44,-32.61 548,-83.99 734.85,-189.45 115.98,-65.45 189.23,-169.53 159.67,-339.71l-150.31 -865.12zm-819.82 4168.4c186.98,0 356.29,75.82 478.84,198.37 122.55,122.55 198.37,291.86 198.37,478.84 0,186.98 -75.82,356.29 -198.37,478.84 -122.55,122.55 -291.86,198.37 -478.84,198.37 -186.98,0 -356.29,-75.82 -478.84,-198.37 -122.55,-122.55 -198.37,-291.86 -198.37,-478.84 0,-186.98 75.82,-356.29 198.37,-478.84 122.55,-122.55 291.86,-198.37 478.84,-198.37zm125.32 551.89c-32.05,-32.05 -76.37,-51.89 -125.32,-51.89 -48.95,0 -93.27,19.84 -125.32,51.89 -32.05,32.05 -51.89,76.37 -51.89,125.32 0,48.95 19.84,93.27 51.89,125.32 32.05,32.05 76.37,51.89 125.32,51.89 48.95,0 93.27,-19.84 125.32,-51.89 32.05,-32.05 51.89,-76.37 51.89,-125.32 0,-48.95 -19.84,-93.27 -51.89,-125.32zm-125.32 2272.6c249.67,0 475.73,101.22 639.38,264.87 163.65,163.65 264.87,389.72 264.87,639.38 0,249.67 -101.22,475.73 -264.87,639.38 -163.65,163.65 -389.71,264.87 -639.38,264.87 -249.66,0 -475.73,-101.22 -639.38,-264.87 -163.65,-163.65 -264.87,-389.71 -264.87,-639.38 0,-249.66 101.22,-475.73 264.87,-639.38 163.65,-163.65 389.72,-264.87 639.38,-264.87zm262.3 641.95c-67.1,-67.1 -159.84,-108.61 -262.3,-108.61 -102.45,0 -195.2,41.51 -262.3,108.61 -67.1,67.1 -108.61,159.85 -108.61,262.3 0,102.46 41.51,195.2 108.61,262.3 67.1,67.1 159.85,108.61 262.3,108.61 102.46,0 195.2,-41.51 262.3,-108.61 67.1,-67.1 108.61,-159.84 108.61,-262.3 0,-102.45 -41.51,-195.2 -108.61,-262.3zm-262.3 2132.53c326.17,0 621.5,132.24 835.28,346.02 213.78,213.8 346.02,509.13 346.02,835.28 0,326.17 -132.24,621.5 -346.02,835.28 -213.78,213.78 -509.11,346.02 -835.28,346.02 -326.15,0 -621.5,-132.24 -835.28,-346.02 -213.78,-213.78 -346.02,-509.11 -346.02,-835.28 0,-326.15 132.24,-621.48 346.02,-835.28 213.78,-213.78 509.13,-346.02 835.28,-346.02zm363.92 817.38c-93.1,-93.1 -221.78,-150.7 -363.92,-150.7 -142.14,0 -270.82,57.6 -363.92,150.7 -93.1,93.1 -150.7,221.78 -150.7,363.92 0,142.14 57.6,270.82 150.7,363.92 93.1,93.1 221.78,150.7 363.92,150.7 142.14,0 270.82,-57.6 363.92,-150.7 93.1,-93.1 150.7,-221.78 150.7,-363.92 0,-142.14 -57.6,-270.82 -150.7,-363.92zm-363.92 1957.12c402.66,0 767.24,163.25 1031.16,427.17 263.92,263.92 427.17,628.5 427.17,1031.16 0,402.66 -163.25,767.24 -427.17,1031.16 -263.92,263.92 -628.5,427.17 -1031.16,427.17 -402.66,0 -767.24,-163.25 -1031.16,-427.17 -263.92,-263.92 -427.17,-628.5 -427.17,-1031.16 0,-402.66 163.25,-767.24 427.17,-1031.16 263.92,-263.92 628.5,-427.17 1031.16,-427.17zm465.54 992.79c-119.11,-119.11 -283.71,-192.79 -465.54,-192.79 -181.83,0 -346.43,73.68 -465.54,192.79 -119.11,119.11 -192.79,283.71 -192.79,465.54 0,181.83 73.68,346.43 192.79,465.54 119.11,119.11 283.71,192.79 465.54,192.79 181.83,0 346.43,-73.68 465.54,-192.79 119.11,-119.11 192.79,-283.71 192.79,-465.54 0,-181.83 -73.68,-346.43 -192.79,-465.54zm-2696.3 5109.15l0 -884.6c0,-313.49 41.43,-552.82 124.43,-739.33 107.39,-241.34 272.71,-386.31 495.52,-466.58 351.16,-126.54 715.52,-25.79 1094.65,79.06 179.03,49.5 362.4,100.22 516.87,115.02 157.89,15.11 379.8,-49.39 597.72,-112.72 364.59,-105.97 721.34,-209.66 1079.91,-84.88 225.59,78.52 393.3,222.8 502.81,465.46 83.92,185.94 125.81,426.62 125.81,743.97l0 897.83c77.55,36.88 153.34,77.36 227.35,121.05 363.57,214.62 682.22,509.11 957.61,832.84l1.56 0c6.34,7.46 36.44,45.47 69.6,87.34 123.38,155.86 333.53,421.32 673.98,421.32l1058.12 0c7.42,0 14.78,0.22 22.11,0.62 650.4,-13.58 1004.57,233.52 1202.79,669.2 164.77,362.2 180.51,825.57 180.51,1370.59l0 11046.33c0,1072.5 -526.48,1709.24 -1271.2,2079 -678.08,336.66 -1533.4,428.03 -2303.7,429.66l0 1.56 -6266.78 0 0 -1.56c-770.3,-1.63 -1625.62,-93 -2303.7,-429.66 -744.72,-369.76 -1271.2,-1006.5 -1271.2,-2079l0 -11046.33c0,-545.02 15.74,-1008.39 180.51,-1370.59 200.45,-440.58 560.41,-688.3 1224.9,-668.62l0 -1.2 1121.5 0c340.45,0 550.6,-265.46 673.98,-421.32 33.16,-41.87 63.26,-79.88 69.6,-87.34l1.56 0c275.39,-323.73 594.04,-618.22 957.61,-832.84 82.96,-48.98 168.15,-93.91 255.57,-134.28zm3737.72 -217.53l0 -667.07c0,-202.16 -17.96,-336.15 -53.93,-415.85 -10.37,-22.98 -22.61,-35.39 -37.19,-40.46 -118.55,-41.25 -354.45,27.31 -595.53,97.38 -290.45,84.41 -586.2,170.38 -894.6,140.86 -226.54,-21.71 -443.02,-81.58 -654.37,-140.02 -255.29,-70.6 -500.63,-138.45 -613.39,-97.82 -13.65,4.91 -25.52,17.66 -36.16,41.58 -35.05,78.76 -52.55,212.31 -52.55,414.33l0 664.13c77.83,-7.66 157.05,-11.64 237.65,-11.64l2434.2 0c90.36,0 178.98,4.99 265.87,14.58zm-1778.63 -21720.33l694.56 -7.49 0 -6075.5 -694.56 0 0 6082.99zm1494.56 -6082.99l0 6485.77c0,174.37 7.38,354.3 22.21,531.96 14.6,175.03 35.95,347.03 64.03,508.68l448.5 2581.37c101.14,582.11 -153.75,940.52 -556.55,1167.85 -321.23,181.3 -725.06,253.43 -1080.16,294.89l-45.32 5.3 -45.3 -5.3c-355.09,-41.46 -758.92,-113.58 -1080.16,-294.89 -402.8,-227.33 -657.69,-585.74 -556.55,-1167.85l448.5 -2581.37c28.08,-161.65 49.43,-333.65 64.03,-508.68 14.83,-177.66 22.21,-357.59 22.21,-531.96l0 -6485.77 -751.4 0c-428.84,0 -763.15,-64.4 -1016.48,-257.47 -277.13,-211.22 -415.4,-529.52 -415.4,-1015.64l0 -9896.9c0,-792.11 397,-1412.59 970.97,-1863.55 669.07,-525.7 1589.95,-814.37 2367.37,-863.22l25 -1.57 25 1.57c777.42,48.85 1698.3,337.52 2367.37,863.22 573.97,450.96 970.97,1071.44 970.97,1863.55l0 9896.9c0,486.12 -138.27,804.42 -415.4,1015.64 -253.33,193.07 -587.64,257.47 -1016.48,257.47l-816.96 0zm947.63 -12263.85l0 11461.56c190.85,-7.28 327.06,-32.88 401.43,-89.56 66.56,-50.73 99.78,-169.01 99.78,-381.26l0 -9896.9c0,-438.47 -198.39,-804.1 -501.21,-1093.84zm-500 11463.85l0 -11830.91c-92.09,-52.72 -187.61,-101.07 -285.41,-145.04l0 11975.95 285.41 0zm-585.41 0l0 -12095.04c-326.15,-113.34 -664.3,-181.18 -976.72,-203.17 -631.64,44.47 -1368.49,276.23 -1898.61,692.77 -392.94,308.73 -664.73,722.2 -664.73,1235.43l0 9896.9c0,212.25 33.22,330.53 99.78,381.26 90.37,68.87 272.02,91.85 532.1,91.85l2908.18 0zm-1094.62 44709.87c-3.11,0.2 -6.25,0.28 -9.43,0.19 -1050.71,-29.55 -1836.36,-258.28 -2609.16,-483.26 -243.86,-70.99 -486.44,-141.61 -748.72,-208.33 -273.16,-69.48 -513.45,-115.2 -700.82,-144.95 -188.8,-29.98 -325.19,-44.21 -387.7,-50.11 -46.37,-4.46 -75.29,-32.88 -87.82,-68.36 -4.75,-13.4 -6.42,-27.16 -5.7,-40.26l0 -1.56c0.92,-12.67 4.42,-25.72 10.58,-38.3 16.68,-33.96 49.48,-59.55 96.3,-57.83 447.33,15.59 1244.55,139.28 1719.77,212.99 155,24.04 274.33,42.56 341.37,50.63 218.92,26.36 459.75,67.53 714.65,111.08 521.59,89.12 1102.98,188.46 1666.68,189 563.7,-0.54 1145.09,-99.88 1666.68,-189 254.9,-43.55 495.73,-84.72 714.65,-111.08 67.04,-8.07 186.37,-26.59 341.37,-50.63 475.22,-73.71 1272.44,-197.4 1719.77,-212.98 46.82,-1.73 79.62,23.86 96.3,57.82 6.16,12.58 9.66,25.63 10.58,38.3l0 1.56c0.72,13.1 -0.95,26.86 -5.68,40.27 -12.55,35.47 -41.47,63.89 -87.84,68.35 -62.51,5.9 -198.9,20.13 -387.7,50.11 -187.37,29.75 -427.66,75.47 -700.82,144.95 -262.28,66.72 -504.86,137.34 -748.72,208.33 -772.8,224.98 -1558.45,453.71 -2609.16,483.26 -3.18,0.09 -6.32,0.01 -9.43,-0.19zm3088.36 -1618c107.43,-25.45 215.17,41.01 240.62,148.44 25.45,107.43 -41.01,215.17 -148.44,240.62 -705.12,168.04 -1944.74,252.07 -3180.48,252.07 -1235.74,0 -2475.36,-84.03 -3180.48,-252.07 -107.43,-25.45 -173.89,-133.19 -148.44,-240.62 25.45,-107.43 133.19,-173.89 240.62,-148.44 674.51,160.75 1879.5,241.13 3088.3,241.13 1208.8,0 2413.79,-80.38 3088.3,-241.13zm2406.24 -11989.67l-219.15 9454.17 0 11.72c-43.01,542.71 -281.33,972.35 -620.58,1302.23 -404.44,393.27 -951.06,640.09 -1474.33,764.81 -705.12,168.04 -1944.74,252.07 -3180.48,252.07 -1235.74,0 -2475.36,-84.03 -3180.48,-252.07 -523.27,-124.72 -1069.89,-371.54 -1474.33,-764.81 -339.25,-329.88 -577.57,-759.52 -620.58,-1302.23l0 -11.72 -219.14 -9453.7c-164.6,22.85 -256.21,91.36 -303.38,195.04 -99.15,217.96 -108.63,591.28 -108.63,1039.33l0 11046.33c0,706.75 341.4,1123.61 824.32,1363.38 549.56,272.85 1281.74,346.98 1950.58,348.4l0 -1.56 6266.78 0 0 1.56c668.84,-1.42 1401.02,-75.55 1950.58,-348.4 482.92,-239.77 824.32,-656.63 824.32,-1363.38l0 -11046.33c0,-448.05 -9.48,-821.37 -108.63,-1039.33 -47.5,-104.4 -140.08,-173.14 -306.87,-195.51zm-10590.59 -5.57l218.83 9440.22 0.27 -0.02c34.54,435.78 226.67,781.52 500.26,1047.55 346.92,337.33 825.91,551.46 1288.39,661.69 674.51,160.75 1879.5,241.13 3088.3,241.13 1208.8,0 2413.79,-80.38 3088.3,-241.13 462.48,-110.23 941.47,-324.36 1288.39,-661.69 273.59,-266.03 465.72,-611.77 500.26,-1047.55l0.27 0.02 218.83 -9440.22 -849.54 0 -8426.14 0 -916.42 0zm7985.22 -800c-218.6,-255.85 -469.15,-487.22 -751.67,-654 -265.49,-156.74 -561.18,-253.89 -886.96,-253.89l-2434.2 0c-325.78,0 -621.47,97.15 -886.96,253.89 -282.52,166.78 -533.07,398.15 -751.67,654l5711.46 0zm-31038.53 -26599.5c82.99,480.17 65.99,875.22 -25.05,1202.72 -136.81,492.15 -433.12,826.64 -809.16,1063.37 44.25,729.59 106.17,1264.88 210.07,1791.4 133.22,675.12 336.27,1340.4 659.52,2381.51l0 1.56c143.35,472.11 443.1,1045.89 782.4,1695.4 321.08,614.63 675.84,1293.85 980.44,2038.34l0.77 -10.29c56.07,-880.47 132.05,-1825.34 222.34,-2773.79 0.31,-4.72 0.68,-9.45 1.17,-14.19 75.33,-727.48 12.42,-1382.68 -172.67,-1960.12 -119.1,-371.59 -289.49,-712.59 -506.7,-1021.44l-3.53 16.68c-46.6,215.73 -259.28,352.85 -475.01,306.25 -215.73,-46.6 -352.85,-259.28 -306.25,-475.01 107.31,-496.37 178.37,-1530.44 135.45,-2440.92 -30.14,-639.43 -108.11,-1193.36 -256.28,-1384.39 -128.01,-165.03 -278.15,-297.78 -437.51,-417.08zm-865.14 1664.35c164.45,-154.1 291.01,-347.6 359.63,-594.45 100.7,-362.27 84.55,-843.2 -103.59,-1486.15 -10.78,-7.55 -21.66,-15.22 -32.67,-23.03 -495.53,-351.59 -674.69,-905.92 -814.1,-1452.08 33.19,769.71 179.07,1435.28 324.96,2100.82 95.98,437.85 191.97,875.72 260.5,1366.32l2.11 15.07 1.02 23.99 2.14 49.51zm10019.51 -194.22l0.67 -23.5c18.28,-597.33 359.3,-1056.42 721.63,-1477.33 -600.22,466.8 -1055.65,958.45 -1511.07,1450.09 -316.12,341.25 -632.26,682.53 -982.34,1007.62l-13.79 12.82 -15.9 12.18c-77.84,59.69 -152.92,117.62 -225.52,174.01 265.86,-31.63 570.58,-161.78 870.33,-330.78 433.01,-244.12 853.37,-572.53 1155.99,-825.11zm4137.66 23631.27c13.48,136.99 -86.65,258.98 -223.64,272.46 -136.99,13.48 -258.98,-86.65 -272.46,-223.64 -58.55,-580.61 -208.51,-1135.28 -472.34,-1680.08 -265.62,-548.51 -647.62,-1088.63 -1168.78,-1636.77 -94.92,-99.77 -90.99,-257.62 8.78,-352.54 99.77,-94.92 257.62,-90.99 352.54,8.78 557.76,586.64 968.56,1168.76 1256.68,1763.73 289.91,598.66 454.76,1208.81 519.22,1848.06zm-5348.01 -17131.8c126.54,-129.8 252.16,-262.56 376.22,-397.34 165.94,-180.27 328.94,-363.87 487.52,-548.5 -94.23,-123.07 -189.16,-179.42 -276.29,-182.88 -55.32,-2.2 -114.29,16.36 -172.42,51.65 -74.58,45.28 -146.66,117.36 -210.59,210.61 -148.54,216.66 -235.67,523.71 -204.44,866.46zm-3130.3 -4368.95c77.53,-405.47 101.51,-779.61 124.42,-1137.35 47.71,-744.68 91.33,-1425.36 546.49,-2241.31 256.71,-460.18 539.92,-981.88 736.91,-1470.28 178.08,-441.53 284.84,-845.89 225.16,-1120.04 -14.56,-66.94 -33.58,-131.25 -57.1,-191.14 -60.01,-152.78 -149.22,-282.89 -268.54,-358.23 -112.71,-71.17 -267.14,-98.15 -469.97,-54 -24.08,5.24 -48.63,11.39 -73.65,18.48l-1592.12 3096.86c-323.98,630.19 -705.02,3036.23 -1003.25,5709.6 80.41,-118.77 166.62,-236.53 259.15,-353.26l0.55 0.44c661.91,-845.55 1100.4,-1400.58 1571.95,-1899.77zm7018.29 1732.18c-0.82,-9.7 -1.57,-19.42 -2.22,-29.17 -18.29,-272.28 27.61,-551.5 176.44,-862.97 53.41,-111.79 110.82,-236.13 166.24,-362.89 -210.42,220.69 -418.74,457.53 -625.14,707.94 -305.39,370.51 -612.07,778.15 -919.24,1212.67l-1.56 1.56c-250.78,351.32 -533.84,722.25 -837.89,1095.2 166.94,-19.53 318.91,-74.84 459.71,-155.12 249.45,-142.23 472.81,-365.18 684.14,-610.92 54.46,-63.34 215.16,-240.36 400.4,-444.44 169.07,-186.27 358.57,-395.03 499.12,-551.86zm-5894.51 -9122.63c85.37,5.78 166.92,19.12 244.66,39.25 6.17,-183.9 33.12,-384.42 88.47,-613.64 -73,95.07 -140.2,201.82 -202.63,315.05 -45.83,83.12 -89.21,170.22 -130.5,259.34z"/></g>
    </g><g data-name="business_name" fill="#583300" data="id:34" transform="translate(65.19126795230422,230.96783031980343) scale(0.8160336257056805)"><path d="M9.92,17.44l-0.28-0.28q3.04-3.28,5.08-5.24q1.08,1.08,1.64,2.12q-2.56,1.48-6.44,3.4z M2.92,47.6q1.04,0,1.78-0.74t0.78-1.78l0-22.4q0-0.96-0.76-1.62t-1.8-0.66l-0.48,0l-0.04-0.4l8.12,0q1.72,0,3.06-0.28t1.7-0.44l0,5.04l-0.4,0l0-0.72q0-0.96-0.66-1.64t-1.58-0.72l-4.56,0l0,12.36l7.6,0q0.8-0.04,1.36-0.6t0.56-1.4l0-0.56l0.4,0l0,6.32l-0.4,0l0-0.6q0-0.8-0.54-1.36t-1.34-0.6l-7.64,0l0,11.96l8.52,0q2.96,0,4.52-1.32t2.6-3.92l0.4,0l-2.32,6.48l-19.4,0l0-0.4l0.52,0z M30.66,44.52q-3.98-4-3.98-10.54t3.98-10.54t10.54-4q5.36,0,9.48,2.72l0.8,5.64l-0.36,0q-0.88-3.44-3.56-5.3t-6.36-1.86q-5.24,0-8.38,3.64t-3.14,9.64t3.1,9.66t8.18,3.78q4.48,0,7.48-2.44q3.24-2.64,3.92-8.6l0.32,0l-0.48,6.28q-3.64,5.96-11.24,5.96q-6.32-0.04-10.3-4.04z M57.6,47.6q1.04,0,1.78-0.74t0.78-1.78l0-22.16q-0.04-1.04-0.78-1.78t-1.78-0.74l-0.52,0l0-0.4l8.76,0l0,0.4l-0.52,0q-1.44,0-2.2,1.24q-0.36,0.6-0.36,1.28l0,23.84l5.72,0q2.96,0,4.52-1.32t2.6-3.92l0.4,0l-2.32,6.48l-16.6,0l0-0.4l0.52,0z M105.76,47.6l0.32,0l0,0.4l-9,0l0-0.4l0.36,0q0.84,0,1.26-0.54t0.42-1.02t-0.16-0.96l-2.56-6.8l-10.8,0l-2.68,6.84q-0.16,0.48-0.16,0.94t0.42,1t1.26,0.54l0.36,0l0,0.4l-8.04,0l0-0.4l0.36,0q1,0,1.96-0.64t1.56-1.88l9.04-21.52q1.48-3.24,1.48-4.12l0.36,0l10.72,25.64q0.56,1.24,1.52,1.88t2,0.64z M86.08,37.08l9.84,0l-4.8-12.84z M129.2,23.56q0-0.96-0.68-1.66t-1.6-0.74l-7.6,0l0,23.96q0.04,1.04,0.78,1.76t1.78,0.72l0.52,0l0,0.4l-8.76,0l0-0.4l0.52,0q1.04,0,1.78-0.72t0.78-1.72l0-24l-7.6,0q-0.96,0.04-1.62,0.74t-0.66,1.66l0,0.68l-0.4,0.04l0-5.04q0.6,0.24,2.08,0.48t2.72,0.24l13.52,0q1.96,0,3.26-0.3t1.58-0.42l0,5.04l-0.4-0.04l0-0.68z  M182.52,54.08q-3.2,1-5.76,0.36q-2.68-0.72-4.64-2.24q-1.88-1.52-3.84-3.64l-21.08-23.36l0,20q0.04,1.4,1.24,2.08q0.56,0.32,1.2,0.32l0.76,0l0,0.4l-8.24,0l0-0.4l0.76,0q1,0,1.72-0.7t0.72-1.74l0-21.96q-0.2-0.28-0.8-1.06t-1-1.26t-1.08-1.26t-1.26-1.26t-1.34-1.12q-1.2-0.92-2.56-1.32t-2.3-0.4t-2.02,0.32l-0.16-0.4q1.92-0.8,3.7-0.8t3.06,0.42t2.76,1.5t2.42,2t2.26,2.4l20.16,22.4l0-20.52q-0.04-1.04-0.76-1.74t-1.72-0.7l-0.76,0l0-0.4l8.24,0l0,0.4l-0.72,0q-1,0-1.72,0.7t-0.76,1.7l0,22.6q0.4,0.44,1.14,1.32t1.04,1.24t0.9,1.04t1.02,1.06t1.04,0.96t1.16,0.92t1.22,0.78q0.96,0.56,2.18,0.84t2,0.28t1.66-0.16z M202.6,47.6l0.32,0l0,0.4l-9,0l0-0.4l0.36,0q0.84,0,1.26-0.54t0.42-1.02t-0.16-0.96l-2.56-6.8l-10.8,0l-2.68,6.84q-0.16,0.48-0.16,0.94t0.42,1t1.26,0.54l0.36,0l0,0.4l-8.04,0l0-0.4l0.36,0q1,0,1.96-0.64t1.56-1.88l9.04-21.52q1.48-3.24,1.48-4.12l0.36,0l10.72,25.64q0.56,1.24,1.52,1.88t2,0.64z M182.92,37.08l9.84,0l-4.8-12.84z M205.4,47.6q1.04,0,1.78-0.74t0.78-1.78l0-22.2q-0.04-1.04-0.78-1.76t-1.78-0.72l-0.52,0l0-0.4l8.76,0l0,0.4l-0.52,0q-1.04,0-1.78,0.72t-0.78,1.76l0,22.2q0,1.04,0.76,1.78t1.8,0.74l0.52,0l0,0.4l-8.76,0l0-0.4l0.52,0z M218.92,47.6q1.04,0,1.78-0.74t0.78-1.78l0-22.16q-0.04-1.04-0.78-1.78t-1.78-0.74l-0.52,0l0-0.4l8.76,0l0,0.4l-0.52,0q-1.44,0-2.2,1.24q-0.36,0.6-0.36,1.28l0,23.84l5.72,0q2.96,0,4.52-1.32t2.6-3.92l0.4,0l-2.32,6.48l-16.6,0l0-0.4l0.52,0z  M253.2,18.64q2.6-1.08,5-1.08q2,0,4.12,1.48q1.16,0.8,2.6,3.12q0.96,1.6,2.44,5.8l4.88,13.84q1.68,4.64,3.42,7.38t3.18,4.12t3,1.94t2.58,0.56t1.82-0.16l0.04,0.4q-1.92,0.64-3.76,0.64t-3.68-0.94t-3.44-2.62q-3.44-3.48-5.84-10.6l-1.56-4.56l-10.96,0l-2.76,7.12q-0.2,0.48-0.2,0.96t0.42,1.02t1.3,0.54l0.32,0l0,0.4l-8.04,0l0-0.4l0.36,0q0.96,0,1.88-0.58t1.52-1.74l9.92-23.76q-2.16-3.08-5.36-3.08q-1.44,0-3.08,0.6z M257.48,36.76l10.12,0l-3.16-9.32q-0.92-2.68-1.68-4.2z M287.6,21.24l-2.56,0l0,23.84q0,1.04,0.74,1.78t1.82,0.74l0.48,0l0.04,0.4l-8.76,0l0-0.4l0.52,0q1.04,0,1.78-0.72t0.78-1.76l0-22.2q-0.04-1.04-0.78-1.78t-1.78-0.74l-0.52,0l0-0.4l10.8,0q3.64,0,5.72,2.02t2.08,5.24t-1.98,5.56t-4.82,2.34q0.6,0.28,1.42,1.1t1.46,1.7q3.44,4.92,4.48,6.06t1.48,1.56t0.96,0.82t1.04,0.64q1.16,0.56,2.48,0.56l0,0.4l-2.2,0q-1.72,0-3.2-0.62t-2.22-1.28t-1.28-1.28t-2.98-4.14t-2.84-4.02t-0.84-0.98q-1.28-1.36-2.56-1.36l0-0.4q0.32,0.04,0.84,0.04t1.28-0.04q4.96-0.12,6.24-4.16q0.24-0.8,0.24-1.5l0-0.9q-0.08-2.68-1.4-4.32t-3.56-1.76q-0.96-0.04-2.4-0.04z M327.6,23.56q0-0.96-0.68-1.66t-1.6-0.74l-7.6,0l0,23.96q0.04,1.04,0.78,1.76t1.78,0.72l0.52,0l0,0.4l-8.76,0l0-0.4l0.52,0q1.04,0,1.78-0.72t0.78-1.72l0-24l-7.6,0q-0.96,0.04-1.62,0.74t-0.66,1.66l0,0.68l-0.4,0.04l0-5.04q0.6,0.24,2.08,0.48t2.72,0.24l13.52,0q1.96,0,3.26-0.3t1.58-0.42l0,5.04l-0.4-0.04l0-0.68z"/></g></svg>